<svg id="visual" viewBox="0 0 2000 600" width="2000" height="600" xmlns="http://www.w3.org/2000/svg" xmlns:xlink="http://www.w3.org/1999/xlink" version="1.1"><rect x="0" y="0" width="2000" height="600" fill="#fff"></rect><defs><linearGradient id="grad1_0" x1="70%" y1="100%" x2="100%" y2="0%"><stop offset="-16.66666666666667%" stop-color="#ffffff" stop-opacity="1"></stop><stop offset="116.66666666666666%" stop-color="#ffffff" stop-opacity="1"></stop></linearGradient></defs><defs><linearGradient id="grad2_0" x1="0%" y1="100%" x2="30%" y2="0%"><stop offset="-16.66666666666667%" stop-color="#ffffff" stop-opacity="1"></stop><stop offset="116.66666666666666%" stop-color="#ffffff" stop-opacity="1"></stop></linearGradient></defs><g transform="translate(2000, 600)"><path d="M-420 0C-415.7 -43.8 -411.4 -87.6 -399.4 -129.8C-387.5 -171.9 -368 -212.5 -338.2 -245.7C-308.3 -278.9 -268.2 -304.9 -226.9 -312.3C-185.6 -319.7 -143.1 -308.5 -105.1 -323.4C-67.1 -338.2 -33.5 -379.1 0 -420L0 0Z" fill="#5ed4ee"></path></g><g transform="translate(0, 0)"><path d="M420 0C373.8 31.4 327.6 62.7 316.7 102.9C305.8 143.1 330.1 192.1 325.2 236.3C320.4 280.4 286.3 319.7 246.9 339.8C207.4 359.9 162.6 360.7 120.5 370.9C78.5 381.1 39.2 400.5 0 420L0 0Z" fill="#5ed4ee"></path></g></svg>