<svg id="visual" viewBox="0 0 900 600" width="900" height="600" xmlns="http://www.w3.org/2000/svg" xmlns:xlink="http://www.w3.org/1999/xlink" version="1.1"><path d="M0 339L21.5 356C43 373 86 407 128.8 413.5C171.7 420 214.3 399 257.2 393.5C300 388 343 398 385.8 410.3C428.7 422.7 471.3 437.3 514.2 425C557 412.7 600 373.3 642.8 367.3C685.7 361.3 728.3 388.7 771.2 406.3C814 424 857 432 878.5 436L900 440L900 601L878.5 601C857 601 814 601 771.2 601C728.3 601 685.7 601 642.8 601C600 601 557 601 514.2 601C471.3 601 428.7 601 385.8 601C343 601 300 601 257.2 601C214.3 601 171.7 601 128.8 601C86 601 43 601 21.5 601L0 601Z" fill="#0066FF" stroke-linecap="round" stroke-linejoin="miter"></path></svg>